#!OML:ASF H:\Punching\Project 1\Capture day 1\Session 1\female.ASF
:FULLY-SPECIFIED
:DEGREES
1454
root 2.04168 15.0076 10.5725 17.5261 -28.257 -4.36168
lowerback 2.80164 -2.39045 0.0495767
upperback -4.6903 -3.13915 1.60482
thorax -6.35539 -1.5242 1.90215
lowerneck -6.26524 10.3769 18.1641
upperneck 19.7766 13.5578 -9.07738
head 9.13646 6.9495 -4.53933
rclavicle 4.58199e-014 -4.37326e-015
rhumerus 11.7813 32.032 -75.3971
rradius 126.646
rwrist -8.74188
rhand -33.3197 1.83002
rfingers 7.12502
rthumb -6.52288 -28.0495
lclavicle 4.58199e-014 -4.37326e-015
lhumerus -6.08196 -19.7282 78.4194
lradius 74.5007
lwrist -19.5674
lhand -40.2981 4.53983
lfingers 7.12502
lthumb -13.2551 34.0984
rfemur -4.66887 6.60343 5.69383
rtibia 16.8603
rfoot -19.9354 -10.6498
rtoes -15.5566
lfemur -44.8023 7.12753 -8.13271
ltibia 46.1055
lfoot -11.2556 8.82529
ltoes -5.00942
1455
root 1.99704 15.0126 10.532 17.1903 -28.4143 -4.14251
lowerback 2.71487 -2.29016 0.0578927
upperback -4.7218 -3.00934 1.51695
thorax -6.34752 -1.46273 1.7925
lowerneck -6.21423 10.3324 18.1068
upperneck 19.9381 13.5488 -9.18823
head 9.18443 6.93583 -4.57442
rclavicle -1.43622e-014 -1.15295e-014
rhumerus 12.1047 31.4967 -73.9421
rradius 126.435
rwrist -9.27154
rhand -32.7407 1.44339
rfingers 7.12502
rthumb -5.96391 -28.4527
lclavicle -1.43622e-014 -1.15295e-014
lhumerus -7.28324 -19.6167 77.2018
lradius 76.0319
lwrist -19.1047
lhand -39.1607 4.51532
lfingers 7.12502
lthumb -12.1586 34.142
rfemur -4.64086 6.56237 5.58874
rtibia 17.0905
rfoot -19.9518 -10.3164
rtoes -16.1065
lfemur -44.2173 7.08177 -8.02236
ltibia 45.542
lfoot -11.0302 8.83806
ltoes -5.1462
1456
root 1.9499 15.0174 10.4888 16.8464 -28.5854 -3.92548
lowerback 2.62725 -2.18481 0.0825684
upperback -4.74904 -2.87207 1.42398
thorax -6.33545 -1.39853 1.66791
lowerneck -6.1266 10.2905 18.0541
upperneck 20.0686 13.5523 -9.31923
head 9.21858 6.92734 -4.61725
rclavicle -3.52843e-014 5.96354e-015
rhumerus 12.4427 30.9368 -72.454
rradius 126.204
rwrist -9.79381
rhand -32.0561 1.0831
rfingers 7.12502
rthumb -5.30289 -28.8306
lclavicle -3.52843e-014 5.96354e-015
lhumerus -8.54456 -19.52 75.9372
lradius 77.6097
lwrist -18.5467
lhand -37.875 4.54099
lfingers 7.12502
lthumb -10.9187 34.2371
rfemur -4.61697 6.53627 5.50144
rtibia 17.2992
rfoot -19.9957 -9.89473
rtoes -16.8105
lfemur -43.6009 7.03637 -7.89494
ltibia 44.94
lfoot -10.7925 8.88078
ltoes -5.25304
1457
root 1.90019 15.0221 10.4425 16.4972 -28.7614 -3.70617
lowerback 2.53655 -2.0769 0.120734
upperback -4.77189 -2.731 1.32403
thorax -6.31743 -1.33334 1.52821
lowerneck -6.01413 10.2531 18.0037
upperneck 20.1752 13.5667 -9.45896
head 9.24238 6.92392 -4.6631
rclavicle 2.79541e-014 9.54166e-015
rhumerus 12.7812 30.3602 -70.9535
rradius 125.957
rwrist -10.313
rhand -31.2595 0.737744
rfingers 7.12502
rthumb -4.5337 -29.1937
lclavicle 2.79541e-014 9.54166e-015
lhumerus -9.85288 -19.4468 74.6336
lradius 79.1951
lwrist -17.8956
lhand -36.4997 4.63129
lfingers 7.12502
lthumb -9.59194 34.3929
rfemur -4.60552 6.51669 5.43343
rtibia 17.5089
rfoot -20.0828 -9.45502
rtoes -17.6402
lfemur -42.9603 6.97591 -7.75158
ltibia 44.2952
lfoot -10.5397 8.96498
ltoes -5.31284
1458
root 1.848 15.0271 10.3931 16.1457 -28.9339 -3.48656
lowerback 2.43827 -1.96369 0.183492
upperback -4.78695 -2.58225 1.21072
thorax -6.28794 -1.26596 1.36006
lowerneck -5.89626 10.216 17.9517
upperneck 20.2696 13.5805 -9.59188
head 9.26026 6.92072 -4.7067
rclavicle 3.15819e-014 -3.97569e-015
rhumerus 13.0996 29.7551 -69.4652
rradius 125.704
rwrist -10.8706
rhand -30.3466 0.429498
rfingers 7.12502
rthumb -3.65219 -29.519
lclavicle 3.15819e-014 -3.97569e-015
lhumerus -11.1794 -19.3947 73.2934
lradius 80.7468
lwrist -17.1303
lhand -35.0703 4.68306
lfingers 7.12502
lthumb -8.21257 34.5034
rfemur -4.61325 6.48154 5.38995
rtibia 17.7422
rfoot -20.2235 -9.04254
rtoes -18.4989
lfemur -42.297 6.88189 -7.58652
ltibia 43.6019
lfoot -10.2677 9.10356
ltoes -5.32131
1459
root 1.79319 15.032 10.34 15.7934 -29.101 -3.2632
lowerback 2.33617 -1.84742 0.260406
upperback -4.7967 -2.42936 1.08502
thorax -6.2509 -1.19755 1.17091
lowerneck -5.7775 10.181 17.8956
upperneck 20.3609 13.5942 -9.7098
head 9.27552 6.91834 -4.74451
rclavicle 4.24902e-014 -3.77691e-015
rhumerus 13.3811 29.1477 -68.0082
rradius 125.431
rwrist -11.4236
rhand -29.4007 0.180196
rfingers 7.12502
rthumb -2.73872 -29.782
lclavicle 4.24902e-014 -3.77691e-015
lhumerus -12.5271 -19.3753 71.9346
lradius 82.2367
lwrist -16.2908
lhand -33.6762 4.75549
lfingers 7.12502
lthumb -6.86701 34.6241
rfemur -4.64712 6.45322 5.36928
rtibia 18.0227
rfoot -20.4337 -8.70398
rtoes -19.3305
lfemur -41.6151 6.74726 -7.40019
ltibia 42.8541
lfoot -9.97188 9.30344
ltoes -5.29721
1460
root 1.73579 15.0373 10.2831 15.4375 -29.2529 -3.03139
lowerback 2.23178 -1.73012 0.349003
upperback -4.80005 -2.27542 0.943474
thorax -6.20584 -1.12956 0.958875
lowerneck -5.67572 10.1472 17.8402
upperneck 20.4663 13.6026 -9.80609
head 9.29657 6.9148 -4.77487
rclavicle 1.05107e-014 6.75868e-015
rhumerus 13.606 28.5476 -66.6004
rradius 125.145
rwrist -11.9747
rhand -28.4042 -0.0707231
rfingers 7.12502
rthumb -1.77629 -30.0431
lclavicle 1.05107e-014 6.75868e-015
lhumerus -13.8821 -19.393 70.5626
lradius 83.6307
lwrist -15.4302
lhand -32.3959 4.85222
lfingers 7.12502
lthumb -5.63099 34.7574
rfemur -4.70473 6.42163 5.36936
rtibia 18.3643
rfoot -20.7111 -8.43244
rtoes -20.0782
lfemur -40.9123 6.55397 -7.19407
ltibia 42.0449
lfoot -9.64767 9.57135
ltoes -5.25333
1461
root 1.67565 15.0428 10.2221 15.0819 -29.3814 -2.79756
lowerback 2.13366 -1.61617 0.446368
upperback -4.80086 -2.12607 0.79224
thorax -6.16116 -1.06442 0.732869
lowerneck -5.59401 10.1154 17.7828
upperneck 20.5956 13.6066 -9.87792
head 9.3272 6.9105 -4.79618
rclavicle -6.53505e-015 -1.03368e-014
rhumerus 13.7558 27.9772 -65.255
rradius 124.849
rwrist -12.5122
rhand -27.3537 -0.334922
rfingers 7.12502
rthumb -0.761699 -30.3133
lclavicle -6.53505e-015 -1.03368e-014
lhumerus -15.2508 -19.4338 69.194
lradius 84.9178
lwrist -14.6144
lhand -31.2717 5.01059
lfingers 7.12502
lthumb -4.54554 34.9418
rfemur -4.78441 6.39734 5.40043
rtibia 18.7735
rfoot -21.0452 -8.22455
rtoes -20.7305
lfemur -40.1906 6.29483 -6.95865
ltibia 41.1686
lfoot -9.28892 9.90648
ltoes -5.18793
1462
root 1.6128 15.0488 10.1569 14.7261 -29.4817 -2.56053
lowerback 2.0417 -1.50534 0.551781
upperback -4.79741 -1.98125 0.627326
thorax -6.11505 -1.00215 0.489058
lowerneck -5.54168 10.0832 17.7266
upperneck 20.7548 13.6001 -9.9204
head 9.37024 6.90295 -4.80766
rclavicle 1.71452e-015 3.57812e-015
rhumerus 13.8164 27.4445 -63.9871
rradius 124.536
rwrist -13.01
rhand -26.266 -0.609889
rfingers 7.12502
rthumb 0.288858 -30.5894
lclavicle 1.71452e-015 3.57812e-015
lhumerus -16.6145 -19.4925 67.8233
lradius 86.0905
lwrist -13.8727
lhand -30.3007 5.21867
lfingers 7.12502
lthumb -3.60785 35.1679
rfemur -4.88165 6.38588 5.4638
rtibia 19.2431
rfoot -21.4241 -8.05913
rtoes -21.2654
lfemur -39.4496 5.95948 -6.69307
ltibia 40.219
lfoot -8.89051 10.3179
ltoes -5.11876
1463
root 1.54727 15.0555 10.0873 14.3721 -29.5458 -2.32063
lowerback 1.95996 -1.40144 0.660105
upperback -4.79165 -1.84614 0.451926
thorax -6.07156 -0.944992 0.234117
lowerneck -5.51866 10.0504 17.6719
upperneck 20.9436 13.5833 -9.93585
head 9.42584 6.89204 -4.81016
rclavicle 5.48397e-014 8.15017e-015
rhumerus 13.7777 26.9592 -62.8077
rradius 124.219
rwrist -13.4795
rhand -25.1003 -0.933041
rfingers 7.12502
rthumb 1.41467 -30.9081
lclavicle 5.48397e-014 8.15017e-015
lhumerus -17.9672 -19.5602 66.4527
lradius 87.1489
lwrist -13.2219
lhand -29.4579 5.48188
lfingers 7.12502
lthumb -2.79397 35.4433
rfemur -4.99595 6.38264 5.56319
rtibia 19.7632
rfoot -21.834 -7.9149
rtoes -21.6915
lfemur -38.6919 5.5387 -6.39599
ltibia 39.1897
lfoot -8.44629 10.8075
ltoes -5.0194
1464
root 1.47902 15.0632 10.0132 14.0278 -29.5694 -2.08653
lowerback 1.88483 -1.30412 0.77649
upperback -4.78369 -1.71993 0.267952
thorax -6.0289 -0.892742 -0.0330948
lowerneck -5.52382 10.0152 17.6191
upperneck 21.157 13.5541 -9.92654
head 9.49198 6.87668 -4.80492
rclavicle 2.33075e-014 2.18663e-015
rhumerus 13.6314 26.528 -61.7272
rradius 123.89
rwrist -13.8916
rhand -23.938 -1.2383
rfingers 7.12502
rthumb 2.53721 -31.203
lclavicle 2.33075e-014 2.18663e-015
lhumerus -19.2964 -19.6128 65.0847
lradius 88.0974
lwrist -12.6422
lhand -28.6707 5.74908
lfingers 7.12502
lthumb -2.03369 35.7191
rfemur -5.12903 6.38622 5.71035
rtibia 20.3198
rfoot -22.2584 -7.80941
rtoes -21.9824
lfemur -37.9191 5.02781 -6.05798
ltibia 38.073
lfoot -7.95269 11.3791
ltoes -4.86785
1465
root 1.40803 15.0722 9.93488 13.6933 -29.55 -1.84954
lowerback 1.81341 -1.21605 0.886263
upperback -4.77645 -1.60677 0.079582
thorax -5.98804 -0.846684 -0.299846
lowerneck -5.54453 9.97764 17.561
upperneck 21.3825 13.5159 -9.89767
head 9.56234 6.85788 -4.79264
rclavicle 3.07371e-014 1.39149e-015
rhumerus 13.3737 26.1619 -60.7486
rradius 123.552
rwrist -14.2349
rhand -22.7935 -1.52944
rfingers 7.12502
rthumb 3.64254 -31.4781
lclavicle 3.07371e-014 1.39149e-015
lhumerus -20.6075 -19.633 63.7379
lradius 88.9391
lwrist -12.126
lhand -27.8944 6.02303
lfingers 7.12502
lthumb -1.28391 35.9989
rfemur -5.28242 6.39673 5.8981
rtibia 20.9017
rfoot -22.6762 -7.77443
rtoes -22.1279
lfemur -37.1328 4.42046 -5.68672
ltibia 36.8623
lfoot -7.4079 12.0333
ltoes -4.64042
1466
root 1.3343 15.0832 9.85252 13.3741 -29.489 -1.62114
lowerback 1.74505 -1.13205 0.997814
upperback -4.76961 -1.49917 -0.11127
thorax -5.94853 -0.803453 -0.569466
lowerneck -5.57518 9.9337 17.4947
upperneck 21.6109 13.4643 -9.85152
head 9.63184 6.83338 -4.77457
rclavicle -4.40308e-014 2.78299e-015
rhumerus 12.9921 25.8554 -59.8785
rradius 123.207
rwrist -14.513
rhand -21.7039 -1.80232
rfingers 7.12502
rthumb 4.69473 -31.7303
lclavicle -4.40308e-014 2.78299e-015
lhumerus -21.8849 -19.6181 62.4201
lradius 89.6776
lwrist -11.6504
lhand -27.0649 6.29488
lfingers 7.12502
lthumb -0.482741 36.2741
rfemur -5.45847 6.40702 6.13751
rtibia 21.4977
rfoot -23.0611 -7.82037
rtoes -22.1024
lfemur -36.3268 3.71188 -5.26866
ltibia 35.5505
lfoot -6.81192 12.7758
ltoes -4.31072
1467
root 1.25786 15.096 9.7658 13.0808 -29.3841 -1.40732
lowerback 1.6779 -1.05215 1.10911
upperback -4.76622 -1.39709 -0.300392
thorax -5.91241 -0.762875 -0.836506
lowerneck -5.6067 9.88365 17.4236
upperneck 21.8295 13.4014 -9.79447
head 9.69542 6.80411 -4.75348
rclavicle -1.88845e-015 2.26615e-014
rhumerus 12.4821 25.6063 -59.1235
rradius 122.85
rwrist -14.7224
rhand -20.7088 -2.04524
rfingers 7.12502
rthumb 5.65549 -31.9498
lclavicle -1.88845e-015 2.26615e-014
lhumerus -23.1328 -19.5556 61.1539
lradius 90.322
lwrist -11.1911
lhand -26.1414 6.57468
lfingers 7.12502
lthumb 0.409174 36.554
rfemur -5.66067 6.43155 6.43372
rtibia 22.0993
rfoot -23.4065 -7.96577
rtoes -21.9547
lfemur -35.5125 2.9111 -4.79848
ltibia 34.1336
lfoot -6.16041 13.6011
ltoes -3.87944
1468
root 1.17881 15.1108 9.67517 12.8125 -29.2368 -1.20384
lowerback 1.61033 -0.977901 1.21093
upperback -4.76684 -1.30293 -0.48498
thorax -5.87919 -0.725653 -1.09282
lowerneck -5.63359 9.82976 17.3453
upperneck 22.0319 13.3317 -9.72903
head 9.75042 6.77198 -4.72936
rclavicle -2.58669e-014 -7.15625e-015
rhumerus 11.8444 25.4191 -58.4862
rradius 122.481
rwrist -14.875
rhand -19.7858 -2.29027
rfingers 7.12502
rthumb 6.54658 -32.1691
lclavicle -2.58669e-014 -7.15625e-015
lhumerus -24.3541 -19.4377 59.9553
lradius 90.8766
lwrist -10.7234
lhand -25.1039 6.86181
lfingers 7.12502
lthumb 1.41117 36.8369
rfemur -5.88175 6.46082 6.77973
rtibia 22.6933
rfoot -23.709 -8.19843
rtoes -21.681
lfemur -34.6893 2.01723 -4.28014
ltibia 32.6095
lfoot -5.45744 14.5137
ltoes -3.33214
